HIERARCHY
ROOT Hips
{
	OFFSET -0.001795 -0.223333 0.028219
	CHANNELS 6 Xposition Yposition Zposition Zrotation Yrotation Xrotation 
	JOINT LeftUpLeg
	{
		OFFSET 0.069520 -0.091406 -0.006815
		CHANNELS 3 Zrotation Yrotation Xrotation
		JOINT LeftLeg
		{
			OFFSET 0.034277 -0.375199 -0.004496
			CHANNELS 3 Zrotation Yrotation Xrotation
			JOINT LeftFoot
			{
				OFFSET -0.013596 -0.397961 -0.043693
				CHANNELS 3 Zrotation Yrotation Xrotation
				JOINT LeftToe
				{
					OFFSET 0.026358 -0.055791 0.119288
					CHANNELS 3 Zrotation Yrotation Xrotation
					End Site
					{
						OFFSET 0.000000 0.000000 0.000000
					}
				}
			}
		}
	}
	JOINT RightUpLeg
	{
		OFFSET -0.067670 -0.090522 -0.004320
		CHANNELS 3 Zrotation Yrotation Xrotation
		JOINT RightLeg
		{
			OFFSET -0.038290 -0.382569 -0.008850
			CHANNELS 3 Zrotation Yrotation Xrotation
			JOINT RightFoot
			{
				OFFSET 0.015774 -0.398415 -0.042312
				CHANNELS 3 Zrotation Yrotation Xrotation
				JOINT RightToe
				{
					OFFSET -0.025372 -0.048144 0.123348
					CHANNELS 3 Zrotation Yrotation Xrotation
					End Site
					{
						OFFSET 0.000000 0.000000 0.000000
					}
				}
			}
		}
	}
	JOINT Spine
	{
		OFFSET -0.002533 0.108963 -0.026696
		CHANNELS 3 Zrotation Yrotation Xrotation
		JOINT Spine1
		{
			OFFSET 0.005487 0.135180 0.001092
			CHANNELS 3 Zrotation Yrotation Xrotation
			JOINT Spine2
			{
				OFFSET 0.001457 0.052922 0.025425
				CHANNELS 3 Zrotation Yrotation Xrotation
				JOINT Neck
				{
					OFFSET -0.002778 0.213870 -0.042857
					CHANNELS 3 Zrotation Yrotation Xrotation
					JOINT Head
					{
						OFFSET 0.005152 0.064970 0.051349
						CHANNELS 3 Zrotation Yrotation Xrotation
						End Site
						{
							OFFSET 0.000000 0.000000 0.000000
						}
					}
				}
				JOINT LeftShoulder
				{
					OFFSET 0.078845 0.121749 -0.034090
					CHANNELS 3 Zrotation Yrotation Xrotation
					JOINT LeftArm
					{
						OFFSET 0.090977 0.030469 -0.008868
						CHANNELS 3 Zrotation Yrotation Xrotation
						JOINT LeftForeArm
						{
							OFFSET 0.259612 -0.012772 -0.027456
							CHANNELS 3 Zrotation Yrotation Xrotation
							JOINT LeftHand
							{
								OFFSET 0.249234 0.008986 -0.001171
								CHANNELS 3 Zrotation Yrotation Xrotation
								End Site
								{
									OFFSET 0.000000 0.000000 0.000000
								}
							}
						}
					}
				}
				JOINT RightShoulder
				{
					OFFSET -0.081759 0.118833 -0.038615
					CHANNELS 3 Zrotation Yrotation Xrotation
					JOINT RightArm
					{
						OFFSET -0.096012 0.032551 -0.009143
						CHANNELS 3 Zrotation Yrotation Xrotation
						JOINT RightForeArm
						{
							OFFSET -0.253742 -0.013329 -0.021401
							CHANNELS 3 Zrotation Yrotation Xrotation
							JOINT RightHand
							{
								OFFSET -0.255298 0.007772 -0.005559
								CHANNELS 3 Zrotation Yrotation Xrotation
								End Site
								{
									OFFSET 0.000000 0.000000 0.000000
								}
							}
						}
					}
				}
			}
		}
	}
}
MOTION
Frames: 17
Frame Time: 0.050000
0.897296 0.865307 1.548419 174.533844 17.432750 -174.916735 20.473136 -18.610329 -32.903266 -38.616753 -21.936576 29.105277 55.426251 -29.534503 62.491729 0.000000 0.000000 0.000000 9.311870 -45.833256 -49.589592 -52.203102 -13.756311 34.723066 82.953444 -7.892941 45.997731 0.000000 0.000000 0.000000 -14.779538 -33.925264 52.477691 -3.502049 -2.896202 -29.195147 22.781110 50.935482 33.264771 14.221300 -13.751657 -26.432898 0.000000 0.000000 0.000000 -5.404998 -27.581667 -92.575993 17.764418 54.554120 20.535519 -56.247191 -13.399677 7.348156 0.000000 0.000000 0.000000 11.365964 -12.982159 82.133885 -45.253034 51.016443 -24.218464 -29.473396 -6.561101 0.333882 0.000000 0.000000 0.000000 
0.915695 0.863342 1.562573 172.902382 14.600100 -174.948892 20.638034 -19.011578 -32.782316 -35.654878 -21.546477 25.657822 56.244029 -32.911019 58.252236 0.000000 0.000000 0.000000 13.956946 -49.641102 -55.725963 -57.319042 -14.424009 34.127656 88.546485 -23.881150 53.243219 0.000000 0.000000 0.000000 -15.910081 -35.755236 54.195181 -3.493578 -3.625647 -29.873615 24.687722 52.521689 34.036307 13.516512 -15.189521 -26.899496 0.000000 0.000000 0.000000 -3.615598 -26.819940 -102.484246 32.823010 52.637800 30.262166 -57.265758 -7.040881 4.667742 0.000000 0.000000 0.000000 7.133472 -13.540916 92.655750 -55.513502 46.737481 -25.973189 -28.307995 -13.265762 1.756328 0.000000 0.000000 0.000000 
0.933411 0.861729 1.576625 172.195332 13.175546 -175.343993 20.698680 -19.065636 -32.375141 -32.558354 -20.367188 24.064008 56.116307 -33.581726 54.454109 0.000000 0.000000 0.000000 17.198314 -50.914410 -59.406954 -59.933836 -14.846546 34.463616 85.961880 -9.110306 50.362903 0.000000 0.000000 0.000000 -16.514131 -36.896217 55.232669 -3.547854 -3.641937 -29.422543 24.649746 53.386258 33.517710 12.818914 -16.979864 -26.062580 0.000000 0.000000 0.000000 -3.748310 -26.220081 -105.664597 38.355844 51.134949 33.692609 -58.485741 -5.662092 4.493145 0.000000 0.000000 0.000000 5.128819 -13.257330 95.842181 -58.784482 45.358850 -25.999829 -28.492391 -16.156444 2.417154 0.000000 0.000000 0.000000 
0.951073 0.858864 1.590503 171.433948 10.968831 -175.741885 20.867572 -19.330447 -32.155186 -29.887387 -19.430173 22.265667 56.015148 -34.534733 50.669706 0.000000 0.000000 0.000000 21.902662 -52.624439 -64.700919 -64.842927 -15.947616 34.650104 74.385907 9.553976 44.515686 0.000000 0.000000 0.000000 -16.483852 -38.241094 55.819744 -3.830903 -3.945936 -29.374167 25.167396 53.842073 33.450300 11.805469 -17.549718 -26.493847 0.000000 0.000000 0.000000 -1.556830 -23.912268 -115.530646 49.085433 46.102455 38.871316 -58.351817 1.495013 0.488004 0.000000 0.000000 0.000000 0.916422 -13.462320 104.170464 -65.886483 41.064092 -24.949288 -25.317649 -21.604893 3.027767 0.000000 0.000000 0.000000 
0.969173 0.854657 1.604081 170.763116 9.674692 -176.477180 20.817277 -19.120028 -31.172066 -27.247225 -18.314965 20.464962 55.931811 -34.698648 47.007579 0.000000 0.000000 0.000000 23.282038 -52.718238 -65.730193 -67.708922 -16.843917 35.465971 51.874996 23.630152 29.143935 0.000000 0.000000 0.000000 -15.989197 -38.884450 55.749666 -4.432110 -4.174656 -28.799203 25.434263 54.097268 33.129723 10.587686 -19.330048 -25.752791 0.000000 0.000000 0.000000 -0.602640 -22.564404 -122.247649 55.223205 41.833845 41.375550 -58.242492 4.507827 -1.369560 0.000000 0.000000 0.000000 -2.773889 -13.243939 110.267075 -70.435549 37.787540 -22.857872 -22.625547 -26.045112 3.281884 0.000000 0.000000 0.000000 
0.988025 0.851679 1.617816 169.920968 7.766470 -177.092517 21.293174 -19.416816 -30.740909 -25.769263 -17.812944 18.395584 53.529978 -34.031769 45.147434 0.000000 0.000000 0.000000 23.642649 -53.365875 -65.883735 -69.404818 -17.548458 36.999938 34.027816 25.037905 16.433169 0.000000 0.000000 0.000000 -15.102238 -39.349741 55.128193 -4.443870 -4.122452 -28.203695 24.608040 53.657420 32.239741 10.085833 -20.957354 -25.557334 0.000000 0.000000 0.000000 1.858391 -18.460834 -135.566851 63.432012 32.056238 41.807467 -56.225869 14.637368 -7.117375 0.000000 0.000000 0.000000 -5.149888 -13.175161 118.677500 -74.528995 31.261335 -19.470326 -18.237845 -29.867191 2.502546 0.000000 0.000000 0.000000 
1.007071 0.851333 1.631848 169.893953 6.570684 -177.542052 22.179822 -19.684040 -29.881862 -22.599507 -15.877783 17.443145 49.774847 -27.632138 37.616000 0.000000 0.000000 0.000000 22.130446 -53.364478 -63.873448 -69.835796 -17.979191 39.140806 34.265301 25.393401 14.812524 0.000000 0.000000 0.000000 -15.245758 -39.945223 55.491475 -4.093958 -4.198711 -28.811720 25.714840 53.991856 33.748711 9.140867 -22.795339 -25.305448 0.000000 0.000000 0.000000 2.729349 -12.388016 -152.918546 69.061864 17.840401 38.169827 -52.501538 26.443904 -12.558572 0.000000 0.000000 0.000000 -9.237516 -11.453510 131.118461 -78.354218 22.461909 -13.043739 -10.628707 -35.178683 0.408895 0.000000 0.000000 0.000000 
1.025276 0.853657 1.646059 169.506903 5.742602 -177.123121 23.535000 -20.283958 -29.338445 -19.914984 -14.150824 15.141582 44.758238 -23.375483 32.198744 0.000000 0.000000 0.000000 21.628009 -53.512081 -63.133804 -67.483863 -17.666911 40.399737 32.910332 25.160841 11.132063 0.000000 0.000000 0.000000 -11.653716 -38.782081 52.004118 -4.874971 -4.676925 -28.079305 23.515963 51.803158 31.673685 7.879575 -24.808028 -24.818538 0.000000 0.000000 0.000000 2.458725 -6.407332 -168.665890 71.611809 3.258923 31.488500 -45.991941 38.198754 -16.158598 0.000000 0.000000 0.000000 -9.607657 -10.551453 138.059581 -79.626344 17.199773 -10.406094 -6.577543 -36.512719 -1.224134 0.000000 0.000000 0.000000 
1.041809 0.858570 1.659428 169.468760 5.141401 -176.758633 24.498800 -20.716373 -28.708926 -17.954527 -12.806823 14.267927 43.090466 -21.700253 27.861457 0.000000 0.000000 0.000000 19.010424 -52.808554 -59.790286 -63.729770 -17.624760 42.324450 29.947109 23.561579 6.275630 0.000000 0.000000 0.000000 -10.062875 -38.051017 50.281501 -4.605999 -4.828293 -29.428904 23.370862 49.991856 32.941971 7.762776 -25.515944 -25.066769 0.000000 0.000000 0.000000 -1.012405 4.151866 161.973653 70.420253 -21.749089 16.727922 -18.183773 53.350514 -9.015041 0.000000 0.000000 0.000000 -12.496918 -8.129382 150.804317 -81.401957 7.365760 -2.596782 1.946240 -39.096517 -4.752786 0.000000 0.000000 0.000000 
1.055904 0.865607 1.670811 169.453985 4.937725 -176.376579 25.212109 -21.028196 -28.183484 -18.272591 -12.826083 14.294784 46.715444 -22.205358 27.015141 0.000000 0.000000 0.000000 15.349549 -51.765703 -55.324774 -57.373766 -17.653075 43.334150 25.277087 19.720615 0.948108 0.000000 0.000000 0.000000 -6.014536 -35.748049 46.086706 -5.149739 -5.051167 -28.829240 20.483136 47.043234 31.199576 8.501723 -24.467057 -26.071530 0.000000 0.000000 0.000000 -3.749369 7.409066 149.730604 66.890999 -32.248277 10.253687 1.547680 55.121020 1.304943 0.000000 0.000000 0.000000 -11.159559 -7.398829 155.766133 -80.708710 4.015306 -2.104718 2.585430 -39.172827 -5.345120 0.000000 0.000000 0.000000 
1.067421 0.875301 1.679629 169.580326 4.783602 -176.368355 23.584577 -19.717609 -25.591639 -16.724912 -12.158762 13.409925 51.409070 -26.981433 28.294254 0.000000 0.000000 0.000000 10.741298 -50.104664 -49.629842 -50.090314 -18.249469 43.419064 19.893847 13.805861 -2.787506 0.000000 0.000000 0.000000 -2.583707 -33.550545 42.438909 -5.828577 -5.434219 -29.221259 19.252787 44.302824 31.474914 9.533945 -23.676191 -26.736743 0.000000 0.000000 0.000000 -8.873376 11.289167 128.821534 57.444318 -46.829376 3.236886 29.287983 47.341762 13.511496 0.000000 0.000000 0.000000 -12.184284 -5.806445 164.889898 -81.199973 -2.004249 2.467375 8.625442 -38.648079 -7.697359 0.000000 0.000000 0.000000 
1.076487 0.885814 1.685622 170.045214 4.726875 -176.326011 22.947418 -19.063110 -23.455161 -17.296599 -12.587664 12.654986 51.094372 -31.959632 36.148629 0.000000 0.000000 0.000000 5.268652 -46.740912 -42.204105 -41.426082 -19.289675 41.993067 14.809352 6.225740 -5.547361 0.000000 0.000000 0.000000 1.521965 -30.157474 37.900089 -6.487717 -5.738221 -28.727918 16.781086 40.633362 31.315249 10.194367 -22.888170 -27.170513 0.000000 0.000000 0.000000 -9.843951 11.540242 122.864867 53.434915 -50.926637 1.870022 37.834464 43.705340 16.301396 0.000000 0.000000 0.000000 -10.774224 -6.105531 168.700512 -80.560506 -3.734485 2.144534 8.526492 -38.820820 -7.807945 0.000000 0.000000 0.000000 
1.082839 0.897642 1.689025 170.303843 4.893690 -176.713802 20.276901 -16.919907 -20.156482 -15.360005 -11.785696 12.083474 46.725576 -32.698542 39.014957 0.000000 0.000000 0.000000 1.878676 -43.846271 -37.298059 -35.694392 -19.914364 40.135201 11.165993 0.728908 -4.904224 0.000000 0.000000 0.000000 3.162427 -27.778360 35.549791 -6.881176 -5.925403 -29.636747 16.186055 38.459903 32.041602 10.560023 -21.767059 -28.156884 0.000000 0.000000 0.000000 -12.620273 12.740130 109.974744 41.691744 -57.422830 2.082400 47.461604 32.612416 15.381750 0.000000 0.000000 0.000000 -10.805024 -6.634517 173.558339 -82.238916 -5.821275 3.515256 9.814836 -38.037706 -8.204359 0.000000 0.000000 0.000000 
1.086470 0.907909 1.690242 170.730818 4.865837 -177.035414 18.998273 -15.792206 -17.283952 -14.380547 -11.304639 10.970896 35.970882 -26.295002 41.285766 0.000000 0.000000 0.000000 -1.347462 -40.543210 -32.180770 -29.204834 -20.323351 37.130643 7.229777 -5.484969 -3.917882 0.000000 0.000000 0.000000 5.214069 -24.746717 32.571886 -7.539213 -6.100506 -29.136313 14.521453 35.226847 31.539115 9.206856 -22.903776 -27.478589 0.000000 0.000000 0.000000 -11.781767 12.349296 110.727598 43.017800 -58.080202 1.133191 50.995840 33.512953 17.388341 0.000000 0.000000 0.000000 -10.957680 -7.811620 173.483370 -83.555918 -3.683575 2.151739 8.580354 -37.915909 -7.563618 0.000000 0.000000 0.000000 
1.087719 0.917275 1.689988 171.341741 5.371710 -177.445445 17.516912 -14.529121 -14.520773 -13.341879 -10.767890 9.713524 29.499465 -21.480851 39.662214 0.000000 0.000000 0.000000 -3.243597 -37.475491 -28.627917 -25.462736 -20.572047 35.259056 5.499541 -8.278215 -2.256220 0.000000 0.000000 0.000000 6.205349 -22.135730 30.537181 -8.163291 -6.479428 -29.494392 14.177320 33.014121 31.500820 7.757023 -23.701421 -27.490271 0.000000 0.000000 0.000000 -13.516612 12.672705 105.012126 36.979347 -60.397132 2.953818 54.049811 29.352744 16.479990 0.000000 0.000000 0.000000 -10.246665 -8.827417 174.273640 -84.646223 -2.337039 0.224476 6.753549 -37.688277 -6.866315 0.000000 0.000000 0.000000 
1.087786 0.924735 1.688842 172.082191 5.103367 -177.972868 16.295548 -13.710600 -11.571140 -12.098719 -10.083667 8.060651 26.867900 -20.140620 36.526615 0.000000 0.000000 0.000000 -5.878720 -34.387216 -23.930592 -20.407713 -20.834633 32.403036 4.130890 -11.713578 -0.984388 0.000000 0.000000 0.000000 7.833671 -19.494356 27.877224 -8.741434 -6.744991 -29.102839 12.915316 30.102843 30.784816 4.460875 -26.626418 -26.011508 0.000000 0.000000 0.000000 -11.443111 11.323128 109.924363 44.677260 -59.622535 0.245286 53.169090 35.817892 18.997748 0.000000 0.000000 0.000000 -10.148829 -8.930836 175.435594 -85.740942 -1.701300 -0.375496 6.533643 -37.697742 -6.822250 0.000000 0.000000 0.000000 
1.087477 0.930125 1.687451 172.818915 5.647532 -178.641231 15.382143 -13.234633 -8.755457 -10.664313 -9.184411 6.066568 27.090233 -20.483628 35.242430 0.000000 0.000000 0.000000 -6.944546 -31.825406 -21.208588 -18.451732 -20.924691 31.100310 4.244850 -12.408924 0.197236 0.000000 0.000000 0.000000 8.343318 -16.366266 25.639367 -8.816920 -6.448343 -29.382151 11.243933 26.198587 30.484805 2.685647 -27.487772 -25.531353 0.000000 0.000000 0.000000 -6.345740 11.424266 122.785772 60.412327 -52.609299 -3.485119 46.144818 46.112256 20.265518 0.000000 0.000000 0.000000 -8.956113 -12.804651 166.069947 -86.481852 8.035490 -9.126572 -3.987735 -38.033333 -2.799344 0.000000 0.000000 0.000000 
